<?xml version="1.0" encoding="UTF-8" standalone="no"?>
<svg
   xmlns:osb="http://www.openswatchbook.org/uri/2009/osb"
   xmlns:dc="http://purl.org/dc/elements/1.1/"
   xmlns:cc="http://creativecommons.org/ns#"
   xmlns:rdf="http://www.w3.org/1999/02/22-rdf-syntax-ns#"
   xmlns:svg="http://www.w3.org/2000/svg"
   xmlns="http://www.w3.org/2000/svg"
   xmlns:sodipodi="http://sodipodi.sourceforge.net/DTD/sodipodi-0.dtd"
   xmlns:inkscape="http://www.inkscape.org/namespaces/inkscape"
   width="287.01999mm"
   height="260.01999mm"
   viewBox="0 0 287.02 260.01999"
   version="1.1"
   id="svg8"
   sodipodi:docname="piirustus.svg"
   inkscape:version="1.0.2-2 (e86c870879, 2021-01-15)">
  <defs
     id="defs2">
    <linearGradient
       id="linearGradient2804"
       osb:paint="solid">
      <stop
         style="stop-color:#000000;stop-opacity:1;"
         offset="0"
         id="stop2802" />
    </linearGradient>
  </defs>
  <sodipodi:namedview
     id="base"
     pagecolor="#ffffff"
     bordercolor="#666666"
     borderopacity="1.0"
     inkscape:pageopacity="0.0"
     inkscape:pageshadow="2"
     inkscape:zoom="0.37192867"
     inkscape:cx="-91.943573"
     inkscape:cy="663.37317"
     inkscape:document-units="mm"
     inkscape:current-layer="layer1"
     inkscape:document-rotation="0"
     showgrid="false"
     inkscape:window-width="1920"
     inkscape:window-height="1017"
     inkscape:window-x="1672"
     inkscape:window-y="-8"
     inkscape:window-maximized="1"
     units="mm"
     fit-margin-left="10"
     fit-margin-top="10"
     fit-margin-bottom="10"
     fit-margin-right="10" />
  <metadata
     id="metadata5">
    <rdf:RDF>
      <cc:Work
         rdf:about="">
        <dc:format>image/svg+xml</dc:format>
        <dc:type
           rdf:resource="http://purl.org/dc/dcmitype/StillImage" />
        <dc:title></dc:title>
      </cc:Work>
    </rdf:RDF>
  </metadata>
  <g
     inkscape:label="Taso 1"
     inkscape:groupmode="layer"
     id="layer1"
     transform="translate(9.01,9.01)">
    <g
       id="panel2077"
       style="stroke-width:0.02;stroke-miterlimit:4;stroke-dasharray:none">
      <path
         style="fill:none;stroke:#000000;stroke-width:0.02;stroke-miterlimit:4;stroke-dasharray:none"
         d="m 38,208 h 5.015 v -3 h 5.17 v 3 h 4.93 v -3 h 5.17 v 3 h 4.93 v -3 h 5.17 v 3 h 4.93 v -3 h 5.17 v 3 h 4.93 v -3 h 5.17 v 3 h 4.93 v -3 h 5.17 v 3 h 4.93 v -3 h 5.17 v 3 h 4.93 v -3 h 5.17 v 3 h 4.93 v -3 h 5.17 v 3 H 134"
         id="path914" />
      <path
         style="fill:none;stroke:#000000;stroke-width:0.02;stroke-miterlimit:4;stroke-dasharray:none"
         d="m 134,208 v 2.335 h -3 v 4.83 h 3 v 5.42 h -3 v 4.83 h 3 v 5.42 h -3 v 4.83 h 3 V 238"
         id="path916" />
      <path
         style="fill:none;stroke:#000000;stroke-width:0.02;stroke-miterlimit:4;stroke-dasharray:none"
         d="m 134,238 h -5.015 v 3 h -5.17 v -3 h -4.93 v 3 h -5.17 v -3 h -4.93 v 3 h -5.17 v -3 h -4.93 v 3 h -5.17 v -3 h -4.93 v 3 h -5.17 v -3 h -4.93 v 3 h -5.17 v -3 h -4.93 v 3 h -5.17 v -3 h -4.93 v 3 h -5.17 v -3 h -4.93 v 3 h -5.17 v -3 H 38"
         id="path918" />
      <path
         style="fill:none;stroke:#000000;stroke-width:0.02;stroke-miterlimit:4;stroke-dasharray:none"
         d="m 38,238 v -2.335 h 3 v -4.83 h -3 v -5.42 h 3 v -4.83 h -3 v -5.42 h 3 v -4.83 H 38 V 208"
         id="path920" />
    </g>
    <g
       id="panel8622"
       style="stroke-width:0.02;stroke-miterlimit:4;stroke-dasharray:none">
      <path
         style="fill:none;stroke:#000000;stroke-width:0.02;stroke-miterlimit:4;stroke-dasharray:none"
         d="m 4,41 h 2.165 v -3 h 5.17 v 3 h 5.08 v -3 h 5.17 v 3 h 5.08 v -3 h 5.17 v 3 H 34"
         id="path923" />
      <path
         style="fill:none;stroke:#000000;stroke-width:0.02;stroke-miterlimit:4;stroke-dasharray:none"
         d="m 34,41 v 1.9738 h 3 v 5.17 h -3 v 4.8888 h 3 v 5.17 h -3 v 4.8889 h 3 v 5.17 h -3 v 4.8888 h 3 v 5.17 h -3 v 4.8888 h 3 v 5.17 h -3 v 4.8888 h 3 v 5.17 h -3 v 4.8891 h 3 v 5.17 h -3 v 4.889 h 3 v 5.17 h -3 v 4.888 h 3 v 5.17 h -3 v 4.889 h 3 v 5.17 h -3 v 4.889 h 3 v 5.17 h -3 v 4.889 h 3 v 5.17 h -3 v 4.889 h 3 v 5.17 h -3 v 4.889 h 3 v 5.17 h -3 v 4.888 h 3 v 5.17 h -3 v 4.889 h 3 v 5.17 H 34 V 201"
         id="path925" />
      <path
         style="fill:none;stroke:#000000;stroke-width:0.02;stroke-miterlimit:4;stroke-dasharray:none"
         d="m 34,201 h -2.165 v 3 h -5.17 v -3 h -5.08 v 3 h -5.17 v -3 h -5.08 v 3 h -5.17 v -3 H 4"
         id="path927" />
      <path
         style="fill:none;stroke:#000000;stroke-width:0.02;stroke-miterlimit:4;stroke-dasharray:none"
         d="m 4,201 v -1.974 H 1 v -5.17 h 3 v -4.889 H 1 v -5.17 h 3 v -4.888 H 1 v -5.17 H 4 V 168.85 H 1 v -5.17 h 3 v -4.889 H 1 v -5.17 h 3 v -4.889 H 1 v -5.17 h 3 v -4.889 H 1 v -5.17 h 3 v -4.889 H 1 v -5.17 h 3 v -4.888 H 1 v -5.17 h 3 v -4.889 H 1 v -5.17 H 4 V 98.4379 H 1 v -5.17 H 4 V 88.3791 H 1 v -5.17 H 4 V 78.3203 H 1 v -5.17 H 4 V 68.2615 H 1 v -5.17 H 4 V 58.2026 H 1 v -5.17 H 4 V 48.1438 H 1 v -5.17 H 4 V 41"
         id="path929" />
    </g>
    <g
       id="panel5725"
       style="stroke-width:0.02;stroke-miterlimit:4;stroke-dasharray:none">
      <path
         style="fill:none;stroke:#000000;stroke-width:0.02;stroke-miterlimit:4;stroke-dasharray:none"
         d="m 38,38 h 5.185 v 3 h 4.83 v -3 h 5.27 v 3 h 4.83 v -3 h 5.27 v 3 h 4.83 v -3 h 5.27 v 3 h 4.83 v -3 h 5.27 v 3 h 4.83 v -3 h 5.27 v 3 h 4.83 v -3 h 5.27 v 3 h 4.83 v -3 h 5.27 v 3 h 4.83 v -3 h 5.27 v 3 h 4.83 V 38 H 134"
         id="path932" />
      <path
         style="fill:none;stroke:#000000;stroke-width:0.02;stroke-miterlimit:4;stroke-dasharray:none"
         d="m 134,38 v 5.1438 h -3 v 4.83 h 3 v 5.2288 h -3 v 4.83 h 3 v 5.2289 h -3 v 4.83 h 3 v 5.2288 h -3 v 4.83 h 3 v 5.2288 h -3 v 4.83 h 3 v 5.2288 h -3 v 4.83 h 3 v 5.2291 h -3 v 4.83 h 3 v 5.229 h -3 v 4.83 h 3 v 5.228 h -3 v 4.83 h 3 v 5.229 h -3 v 4.83 h 3 v 5.229 h -3 v 4.83 h 3 v 5.229 h -3 v 4.83 h 3 v 5.229 h -3 v 4.83 h 3 v 5.229 h -3 v 4.83 h 3 v 5.228 h -3 v 4.83 h 3 v 5.229 h -3 v 4.83 h 3 V 204"
         id="path934" />
      <path
         style="fill:none;stroke:#000000;stroke-width:0.02;stroke-miterlimit:4;stroke-dasharray:none"
         d="m 134,204 h -5.185 v -3 h -4.83 v 3 h -5.27 v -3 h -4.83 v 3 h -5.27 v -3 h -4.83 v 3 h -5.27 v -3 h -4.83 v 3 h -5.27 v -3 h -4.83 v 3 h -5.27 v -3 h -4.83 v 3 h -5.27 v -3 h -4.83 v 3 h -5.27 v -3 h -4.83 v 3 h -5.27 v -3 h -4.83 v 3 H 38"
         id="path936" />
      <path
         style="fill:none;stroke:#000000;stroke-width:0.02;stroke-miterlimit:4;stroke-dasharray:none"
         d="m 38,204 v -5.144 h 3 v -4.83 h -3 v -5.229 h 3 v -4.83 h -3 v -5.228 h 3 v -4.83 h -3 v -5.229 h 3 v -4.83 h -3 v -5.229 h 3 v -4.83 h -3 v -5.229 h 3 v -4.83 h -3 v -5.229 h 3 v -4.83 h -3 v -5.229 h 3 v -4.83 h -3 v -5.228 h 3 v -4.83 h -3 v -5.229 h 3 v -4.83 h -3 v -5.2291 h 3 v -4.83 h -3 v -5.2288 h 3 v -4.83 h -3 v -5.2288 h 3 v -4.83 h -3 v -5.2288 h 3 v -4.83 h -3 v -5.2289 h 3 v -4.83 h -3 v -5.2288 h 3 v -4.83 H 38 V 38"
         id="path938" />
    </g>
    <g
       id="panel3883"
       style="stroke-width:0.02;stroke-miterlimit:4;stroke-dasharray:none">
      <path
         style="fill:none;stroke:#000000;stroke-width:0.02;stroke-miterlimit:4;stroke-dasharray:none"
         d="m 138,41 h 2.165 v -3 h 5.17 v 3 h 5.08 v -3 h 5.17 v 3 h 5.08 v -3 h 5.17 v 3 H 168"
         id="path941" />
      <path
         style="fill:none;stroke:#000000;stroke-width:0.02;stroke-miterlimit:4;stroke-dasharray:none"
         d="m 168,41 v 1.9738 h 3 v 5.17 h -3 v 4.8888 h 3 v 5.17 h -3 v 4.8889 h 3 v 5.17 h -3 v 4.8888 h 3 v 5.17 h -3 v 4.8888 h 3 v 5.17 h -3 v 4.8888 h 3 v 5.17 h -3 v 4.8891 h 3 v 5.17 h -3 v 4.889 h 3 v 5.17 h -3 v 4.888 h 3 v 5.17 h -3 v 4.889 h 3 v 5.17 h -3 v 4.889 h 3 v 5.17 h -3 v 4.889 h 3 v 5.17 h -3 v 4.889 h 3 v 5.17 h -3 v 4.889 h 3 v 5.17 h -3 v 4.888 h 3 v 5.17 h -3 v 4.889 h 3 v 5.17 h -3 V 201"
         id="path943" />
      <path
         style="fill:none;stroke:#000000;stroke-width:0.02;stroke-miterlimit:4;stroke-dasharray:none"
         d="m 168,201 h -2.165 v 3 h -5.17 v -3 h -5.08 v 3 h -5.17 v -3 h -5.08 v 3 h -5.17 v -3 H 138"
         id="path945" />
      <path
         style="fill:none;stroke:#000000;stroke-width:0.02;stroke-miterlimit:4;stroke-dasharray:none"
         d="m 138,201 v -1.974 h -3 v -5.17 h 3 v -4.889 h -3 v -5.17 h 3 v -4.888 h -3 v -5.17 h 3 v -4.889 h -3 v -5.17 h 3 v -4.889 h -3 v -5.17 h 3 v -4.889 h -3 v -5.17 h 3 v -4.889 h -3 v -5.17 h 3 v -4.889 h -3 v -5.17 h 3 v -4.888 h -3 v -5.17 h 3 v -4.889 h -3 v -5.17 h 3 v -4.8891 h -3 v -5.17 h 3 v -4.8888 h -3 v -5.17 h 3 v -4.8888 h -3 v -5.17 h 3 v -4.8888 h -3 v -5.17 h 3 v -4.8889 h -3 v -5.17 h 3 v -4.8888 h -3 v -5.17 h 3 V 41"
         id="path947" />
    </g>
    <g
       id="panel7877"
       style="stroke-width:0.02;stroke-miterlimit:4;stroke-dasharray:none">
      <path
         style="fill:none;stroke:#000000;stroke-width:0.02;stroke-miterlimit:4;stroke-dasharray:none"
         d="m 172,38 h 5.185 v 3 h 4.83 v -3 h 5.27 v 3 h 4.83 v -3 h 5.27 v 3 h 4.83 v -3 h 5.27 v 3 h 4.83 v -3 h 5.27 v 3 h 4.83 v -3 h 5.27 v 3 h 4.83 v -3 h 5.27 v 3 h 4.83 v -3 h 5.27 v 3 h 4.83 v -3 h 5.27 v 3 h 4.83 V 38 H 268"
         id="path950" />
      <path
         style="fill:none;stroke:#000000;stroke-width:0.02;stroke-miterlimit:4;stroke-dasharray:none"
         d="m 268,38 v 5.1438 h -3 v 4.83 h 3 v 5.2288 h -3 v 4.83 h 3 v 5.2289 h -3 v 4.83 h 3 v 5.2288 h -3 v 4.83 h 3 v 5.2288 h -3 v 4.83 h 3 v 5.2288 h -3 v 4.83 h 3 v 5.2291 h -3 v 4.83 h 3 v 5.229 h -3 v 4.83 h 3 v 5.228 h -3 v 4.83 h 3 v 5.229 h -3 v 4.83 h 3 v 5.229 h -3 v 4.83 h 3 v 5.229 h -3 v 4.83 h 3 v 5.229 h -3 v 4.83 h 3 v 5.229 h -3 v 4.83 h 3 v 5.228 h -3 v 4.83 h 3 v 5.229 h -3 v 4.83 h 3 V 204"
         id="path952" />
      <path
         style="fill:none;stroke:#000000;stroke-width:0.02;stroke-miterlimit:4;stroke-dasharray:none"
         d="m 268,204 h -5.185 v -3 h -4.83 v 3 h -5.27 v -3 h -4.83 v 3 h -5.27 v -3 h -4.83 v 3 h -5.27 v -3 h -4.83 v 3 h -5.27 v -3 h -4.83 v 3 h -5.27 v -3 h -4.83 v 3 h -5.27 v -3 h -4.83 v 3 h -5.27 v -3 h -4.83 v 3 h -5.27 v -3 h -4.83 v 3 H 172"
         id="path954" />
      <path
         style="fill:none;stroke:#000000;stroke-width:0.02;stroke-miterlimit:4;stroke-dasharray:none"
         d="m 172,204 v -5.144 h 3 v -4.83 h -3 v -5.229 h 3 v -4.83 h -3 v -5.228 h 3 v -4.83 h -3 v -5.229 h 3 v -4.83 h -3 v -5.229 h 3 v -4.83 h -3 v -5.229 h 3 v -4.83 h -3 v -5.229 h 3 v -4.83 h -3 v -5.229 h 3 v -4.83 h -3 v -5.228 h 3 v -4.83 h -3 v -5.229 h 3 v -4.83 h -3 v -5.2291 h 3 v -4.83 h -3 v -5.2288 h 3 v -4.83 h -3 v -5.2288 h 3 v -4.83 h -3 v -5.2288 h 3 v -4.83 h -3 v -5.2289 h 3 v -4.83 h -3 v -5.2288 h 3 v -4.83 h -3 V 38"
         id="path956" />
    </g>
    <g
       id="panel6174"
       style="stroke-width:0.02;stroke-miterlimit:4;stroke-dasharray:none">
      <path
         style="fill:none;stroke:#000000;stroke-width:0.02;stroke-miterlimit:4;stroke-dasharray:none"
         d="m 38,4 h 5.015 V 1 h 5.17 v 3 h 4.93 V 1 h 5.17 v 3 h 4.93 V 1 h 5.17 v 3 h 4.93 V 1 h 5.17 v 3 h 4.93 V 1 h 5.17 v 3 h 4.93 V 1 h 5.17 v 3 h 4.93 V 1 h 5.17 v 3 h 4.93 V 1 h 5.17 v 3 h 4.93 V 1 h 5.17 V 4 H 134"
         id="path959" />
      <path
         style="fill:none;stroke:#000000;stroke-width:0.02;stroke-miterlimit:4;stroke-dasharray:none"
         d="m 134,4 v 2.335 h -3 v 4.83 h 3 v 5.42 h -3 v 4.83 h 3 v 5.42 h -3 v 4.83 h 3 V 34"
         id="path961" />
      <path
         style="fill:none;stroke:#000000;stroke-width:0.02;stroke-miterlimit:4;stroke-dasharray:none"
         d="m 134,34 h -5.015 v 3 h -5.17 v -3 h -4.93 v 3 h -5.17 v -3 h -4.93 v 3 h -5.17 v -3 h -4.93 v 3 h -5.17 v -3 h -4.93 v 3 h -5.17 v -3 h -4.93 v 3 h -5.17 v -3 h -4.93 v 3 h -5.17 v -3 h -4.93 v 3 h -5.17 v -3 h -4.93 v 3 h -5.17 V 34 H 38"
         id="path963" />
      <path
         style="fill:none;stroke:#000000;stroke-width:0.02;stroke-miterlimit:4;stroke-dasharray:none"
         d="m 38,34 v -2.335 h 3 v -4.83 h -3 v -5.42 h 3 v -4.83 h -3 v -5.42 h 3 V 6.335 H 38 V 4"
         id="path965" />
    </g>
    <rect
       style="fill:none;stroke:#000000;stroke-width:0.02;stroke-miterlimit:4;stroke-dasharray:none;stroke-opacity:1"
       id="rect1823"
       width="11.9"
       height="9.8999996"
       x="19.5"
       y="188.3" />
    <rect
       style="fill:none;fill-opacity:1;stroke:#000000;stroke-width:0.02;stroke-miterlimit:4;stroke-dasharray:none;stroke-opacity:1"
       id="rect1825"
       width="11.9"
       height="13"
       x="19.5"
       y="156.8" />
    <rect
       style="fill:none;fill-opacity:0;stroke:#000000;stroke-width:0.02;stroke-miterlimit:4;stroke-dasharray:none;stroke-opacity:1"
       id="rect2808"
       width="6.4794722"
       height="6.4794722"
       x="7"
       y="104.52054" />
    <rect
       style="fill:none;fill-opacity:0;stroke:#000000;stroke-width:0.02;stroke-miterlimit:4;stroke-dasharray:none;stroke-opacity:1"
       id="rect2810"
       width="4.4898505"
       height="12.489851"
       x="7"
       y="131" />
  </g>
</svg>
