# Blender v2.92.0 OBJ File: 'model.blend'
# www.blender.org
mtllib model.mtl
o print.003_runescapemodel.001
v 0.011639 0.000197 -0.065250
v 0.017362 0.015493 -0.043902
v 0.013074 0.018751 -0.063632
v 0.125928 0.000197 -0.065250
v 0.124493 0.018751 -0.063632
v 0.120206 0.015493 -0.043902
v 0.018781 0.021118 -0.051661
v 0.034497 0.048569 -0.068844
v 0.068784 0.000241 -0.196993
v 0.020490 0.000189 -0.042208
v 0.017362 0.006803 -0.043888
v 0.028790 0.043202 -0.045117
v 0.037351 0.049991 -0.059922
v 0.043073 0.054452 -0.060631
v 0.053067 0.048569 -0.068844
v 0.060208 0.049732 -0.075890
v 0.077359 0.049732 -0.075890
v 0.103070 0.048569 -0.068844
v 0.117078 0.000189 -0.042208
v 0.113309 0.000187 -0.032028
v 0.109769 0.000184 -0.025935
v 0.104291 0.000182 -0.017507
v 0.099027 0.000180 -0.012589
v 0.094983 0.000180 -0.012589
v 0.037824 0.000180 -0.012589
v 0.033276 0.000182 -0.017507
v 0.027799 0.000184 -0.025935
v 0.024258 0.000187 -0.032028
v 0.028790 0.036180 -0.028902
v 0.054501 0.050205 -0.034916
v 0.048779 0.052822 -0.050766
v 0.041638 0.053986 -0.057812
v 0.050214 0.056340 -0.054531
v 0.051648 0.057736 -0.062984
v 0.060208 0.054685 -0.062042
v 0.068784 0.052365 -0.071892
v 0.084500 0.048569 -0.068844
v 0.094495 0.054452 -0.060631
v 0.100201 0.049991 -0.059922
v 0.108777 0.043202 -0.045117
v 0.118787 0.021118 -0.051661
v 0.120206 0.006803 -0.043888
v 0.108777 0.036180 -0.028902
v 0.078778 0.049369 -0.003560
v 0.054501 0.049369 -0.003560
v 0.058789 0.051218 -0.023522
v 0.053067 0.044636 -0.027505
v 0.057355 0.044404 -0.026097
v 0.065930 0.049331 -0.029625
v 0.064496 0.050205 -0.034916
v 0.054501 0.053024 -0.034451
v 0.068784 0.054433 -0.034218
v 0.068784 0.062888 -0.032821
v 0.054501 0.053546 -0.037617
v 0.054501 0.050727 -0.038083
v 0.061643 0.051426 -0.042309
v 0.064779 0.055921 -0.059749
v 0.061643 0.054219 -0.059223
v 0.083066 0.050205 -0.034916
v 0.080212 0.046046 -0.027272
v 0.084500 0.044636 -0.027505
v 0.078778 0.051218 -0.023522
v 0.068784 0.052395 -0.021881
v 0.068784 0.051218 -0.023522
v 0.058789 0.044171 -0.024686
v 0.065930 0.049098 -0.028218
v 0.071637 0.049331 -0.029625
v 0.073071 0.050205 -0.034916
v 0.071637 0.065707 -0.032356
v 0.065930 0.065707 -0.032356
v 0.054501 0.058660 -0.033520
v 0.054501 0.057479 -0.036488
v 0.068784 0.064109 -0.040214
v 0.061643 0.054245 -0.041844
v 0.068784 0.062141 -0.046961
v 0.068784 0.060980 -0.056633
v 0.085919 0.057736 -0.062984
v 0.087354 0.056340 -0.054531
v 0.095929 0.053986 -0.057812
v 0.077359 0.054685 -0.062042
v 0.075925 0.054219 -0.059223
v 0.088788 0.052822 -0.050766
v 0.072788 0.055921 -0.059749
v 0.075925 0.051426 -0.042309
v 0.083066 0.050727 -0.038083
v 0.078778 0.044171 -0.024686
v 0.071637 0.049098 -0.028218
v 0.083066 0.053024 -0.034451
v 0.083066 0.053546 -0.037617
v 0.083066 0.058660 -0.033520
v 0.083066 0.057479 -0.036488
v 0.075925 0.054245 -0.041844
vt 0.375000 0.000000
vt 0.375000 0.000000
vt 0.375000 0.000000
vt 0.375000 0.000000
vt 0.375000 0.000000
vt 0.375000 0.000000
vt 0.375000 0.000000
vt 0.375000 0.000000
vt 0.375000 0.000000
vt 0.375000 0.000000
vt 0.375000 0.000000
vt 0.375000 0.000000
vt 0.375000 0.000000
vt 0.375000 0.000000
vt 0.375000 0.000000
vt 0.375000 0.000000
vt 0.375000 0.000000
vt 0.375000 0.000000
vt 0.375000 0.000000
vt 0.375000 0.000000
vt 0.375000 0.000000
vt 0.375000 0.000000
vt 0.375000 0.000000
vt 0.375000 0.000000
vt 0.375000 0.000000
vt 0.375000 0.000000
vt 0.375000 0.000000
vt 0.375000 0.000000
vt 0.375000 0.000000
vt 0.375000 0.000000
vt 0.375000 0.000000
vt 0.375000 0.000000
vt 0.375000 0.000000
vt 0.375000 0.000000
vt 0.375000 0.000000
vt 0.375000 0.000000
vt 0.375000 0.000000
vt 0.375000 0.000000
vt 0.375000 0.000000
vt 0.375000 0.000000
vt 0.375000 0.000000
vt 0.375000 0.000000
vt 0.375000 0.000000
vt 0.375000 0.000000
vt 0.375000 0.000000
vt 0.375000 0.000000
vt 0.375000 0.000000
vt 0.375000 0.000000
vt 0.375000 0.000000
vt 0.375000 0.000000
vt 0.375000 0.000000
vt 0.375000 0.000000
vt 0.375000 0.000000
vt 0.375000 0.000000
vt 0.375000 0.000000
vt 0.375000 0.000000
vt 0.375000 0.000000
vt 0.375000 0.000000
vt 0.375000 0.000000
vt 0.375000 0.000000
vt 0.375000 0.000000
vt 0.375000 0.000000
vt 0.375000 0.000000
vt 0.375000 0.000000
vt 0.375000 0.000000
vt 0.375000 0.000000
vt 0.375000 0.000000
vt 0.375000 0.000000
vt 0.375000 0.000000
vt 0.375000 0.000000
vt 0.375000 0.000000
vt 0.375000 0.000000
vt 0.375000 0.000000
vt 0.375000 0.000000
vt 0.375000 0.000000
vt 0.375000 0.000000
vt 0.375000 0.000000
vt 0.375000 0.000000
vt 0.375000 0.000000
vt 0.375000 0.000000
vt 0.375000 0.000000
vt 0.375000 0.000000
vt 0.375000 0.000000
vt 0.375000 0.000000
vt 0.375000 0.000000
vt 0.375000 0.000000
vt 0.375000 0.000000
vt 0.375000 0.000000
vt 0.375000 0.000000
vt 0.375000 0.000000
vt 0.375000 0.000000
vt 0.375000 0.000000
vn -0.9737 0.0560 0.2209
vn 0.9737 0.0561 0.2208
vn -0.7848 0.5611 0.2632
vn -0.7658 0.5935 0.2477
vn -0.7780 0.4902 -0.3930
vn -0.9123 0.1051 -0.3957
vn -0.8810 -0.3307 0.3383
vn -0.8813 -0.3312 0.3371
vn -0.8833 -0.3342 0.3288
vn -0.7284 0.6110 0.3100
vn -0.9179 0.3726 -0.1365
vn -0.5661 0.8228 0.0500
vn -0.6081 0.7909 0.0685
vn 0.0000 0.8130 -0.5823
vn 0.0000 0.9866 0.1629
vn -0.1462 0.9121 -0.3831
vn 0.0000 0.9257 -0.3783
vn 0.1462 0.9121 -0.3831
vn 0.7780 0.4902 -0.3930
vn 0.9123 0.1051 -0.3957
vn 0.0000 -1.0000 -0.0003
vn -0.8837 -0.3349 0.3270
vn -0.9660 0.0004 0.2587
vn -0.8644 0.0006 0.5027
vn -0.8365 0.0678 0.5437
vn -0.9091 0.3822 0.1655
vn -0.3775 0.8498 0.3680
vn -0.3527 0.8944 0.2750
vn -0.2884 0.8538 0.4334
vn -0.6687 0.7421 -0.0464
vn -0.6182 0.7630 -0.1886
vn -0.2720 0.9621 0.0206
vn -0.3322 0.9380 0.0986
vn -0.3927 0.4514 -0.8012
vn 0.2818 0.5474 -0.7880
vn -0.2913 0.8430 -0.4522
vn -0.2512 0.9632 -0.0956
vn 0.0000 0.8352 -0.5500
vn 0.2512 0.9632 -0.0956
vn 0.6090 0.7901 0.0699
vn 0.5650 0.8236 0.0504
vn 0.9179 0.3726 -0.1365
vn 0.7285 0.6110 0.3097
vn 0.7658 0.5935 0.2477
vn 0.7849 0.5610 0.2632
vn 0.8810 -0.3307 0.3383
vn 0.8833 -0.3341 0.3288
vn 0.8814 -0.3310 0.3371
vn 0.8837 -0.3348 0.3271
vn 0.9660 0.0004 0.2586
vn 0.8644 0.0005 0.5027
vn 0.8365 0.0679 0.5437
vn 0.6750 0.1450 0.7234
vn 0.0000 -0.1805 0.9836
vn -0.7280 0.1229 0.6744
vn -0.4462 0.8948 -0.0130
vn -0.1695 0.6139 -0.7710
vn 0.2352 -0.5421 -0.8067
vn -0.2765 0.7594 0.5890
vn -0.2103 0.7841 0.5839
vn 0.0000 0.9866 0.1630
vn 0.0000 0.9866 0.1631
vn 0.0000 -0.1628 0.9867
vn -0.0000 -0.1629 0.9866
vn -1.0000 0.0000 0.0000
vn -0.0001 0.9866 0.1630
vn -0.0528 0.9693 0.2403
vn -0.4595 0.6649 -0.5889
vn 0.3979 0.5898 0.7027
vn -0.4079 0.7395 0.5355
vn 0.9091 0.3822 0.1655
vn 0.3775 0.8498 0.3680
vn 0.3021 0.7855 0.5402
vn 0.0000 0.1632 -0.9866
vn 0.1695 0.6139 -0.7710
vn 0.4583 0.8850 0.0820
vn 0.1313 0.9871 0.0914
vn -0.1271 0.9898 0.0644
vn 0.0000 0.8123 -0.5832
vn 0.0000 0.1630 -0.9866
vn 0.4467 0.1458 -0.8827
vn -0.0002 0.9866 0.1631
vn -0.5023 0.6114 0.6114
vn -0.4951 0.8642 -0.0892
vn -0.4470 0.8825 0.1462
vn 0.0001 -0.1628 0.9867
vn -0.0001 -0.1628 0.9867
vn -0.0000 -0.1630 0.9866
vn -0.3543 0.2580 -0.8988
vn -0.4829 0.4715 -0.7379
vn -0.5144 0.1399 -0.8461
vn -0.5143 0.1401 -0.8461
vn -0.5144 0.1398 -0.8461
vn -0.5143 0.1396 -0.8462
vn -0.9851 0.0280 -0.1699
vn -0.7581 0.6475 -0.0779
vn -0.7629 0.6423 -0.0735
vn -0.7589 0.6467 -0.0769
vn -0.7578 0.6478 -0.0778
vn -0.5829 0.7075 -0.3995
vn -0.1002 0.9455 -0.3099
vn -0.4024 0.8480 0.3450
vn 0.3373 0.9413 -0.0161
vn 0.2575 0.9454 0.1998
vn 0.3006 0.9479 0.1055
vn 0.3650 0.9304 -0.0319
vn 0.3927 0.4514 -0.8013
vn -0.2818 0.5474 -0.7880
vn -0.3084 0.9287 0.2057
vn -0.2047 0.9772 0.0570
vn -0.3979 0.5898 0.7027
vn 0.4079 0.7394 0.5356
vn 0.2884 0.8538 0.4334
vn 0.6695 0.7412 -0.0479
vn 0.6193 0.7621 -0.1890
vn 0.4023 0.8481 0.3448
vn 0.4595 0.6648 -0.5890
vn 0.0528 0.9693 0.2403
vn 0.0001 0.9866 0.1630
vn 0.3527 0.8944 0.2750
vn 0.4766 0.5647 0.6737
vn 0.3481 0.9155 -0.2018
vn 0.0000 0.9114 -0.4115
vn 0.3161 0.9360 0.1547
vn 0.1771 0.8352 0.5206
vn -0.0000 -0.1631 0.9866
vn 1.0000 0.0000 0.0000
vn 0.4708 0.8188 -0.3285
vn 0.4719 0.8192 -0.3260
vn 0.4680 0.8180 -0.3346
vn 0.4673 0.8178 -0.3360
vn 0.0000 0.9799 -0.1993
vn -0.4707 0.8188 -0.3285
vn -0.4673 0.8178 -0.3360
vn -0.4679 0.8180 -0.3346
vn -0.4719 0.8192 -0.3260
vn 0.2672 0.7037 0.6584
vn -0.4467 0.1458 -0.8827
vn 0.0000 0.8126 -0.5828
vn 0.5830 0.7075 -0.3994
vn 0.7581 0.6475 -0.0777
vn 0.7579 0.6477 -0.0778
vn 0.7589 0.6466 -0.0769
vn 0.7629 0.6423 -0.0735
vn 0.9851 0.0280 -0.1700
vn 0.5145 0.1396 -0.8461
vn 0.5145 0.1393 -0.8461
vn 0.5144 0.1394 -0.8461
vn 0.2913 0.8430 -0.4522
vn 0.1002 0.9455 -0.3099
vn 0.5119 0.2370 -0.8257
vn 0.4093 0.4294 -0.8050
vn 0.7838 0.5962 -0.1739
vn -0.7838 0.5962 -0.1739
usemtl m85.002
s 1
f 1/1/1 2/2/1 3/3/1
usemtl m86.002
f 4/4/2 5/5/2 6/6/2
usemtl m88.002
f 3/3/3 2/2/3 7/7/3
usemtl m89.002
f 3/3/4 7/7/4 8/8/4
usemtl m90.002
f 8/8/5 9/9/5 3/3/5
usemtl m91.002
f 3/3/6 9/9/6 1/1/6
usemtl m94.002
f 1/1/7 10/10/8 11/11/9
usemtl m96.002
f 8/8/10 7/7/10 2/2/10
usemtl m97.002
f 8/8/11 2/2/11 12/12/11
usemtl m98.002
f 8/8/12 12/12/12 13/13/12
usemtl m99.002
f 8/8/13 13/13/13 14/14/13
usemtl m100.002
f 8/8/14 14/14/14 15/15/14
usemtl m101.002
f 8/8/15 15/15/15 16/16/15
usemtl m102.002
f 8/8/16 16/16/16 9/9/16
usemtl m103.002
f 9/9/17 16/16/17 17/17/17
usemtl m104.002
f 17/17/18 18/18/18 9/9/18
usemtl m105.002
f 9/9/19 18/18/19 5/5/19
usemtl m106.002
f 5/5/20 4/4/20 9/9/20
f 1/1/21 9/9/21 4/4/21 19/19/21 20/20/21 21/21/21 22/22/21 23/23/21 24/24/21 25/25/21 26/26/21 27/27/21 28/28/21 10/10/21
usemtl m109.002
f 10/10/8 28/28/22 11/11/9
usemtl m110.002
f 2/2/23 1/1/23 11/11/23
f 28/28/24 27/27/24 2/2/24 11/11/24
usemtl m111.002
f 27/27/25 26/26/25 29/29/25 2/2/25
usemtl m112.002
f 2/2/26 29/29/26 12/12/26
usemtl m113.002
f 12/12/27 29/29/27 30/30/27
usemtl m114.002
f 12/12/28 30/30/28 31/31/28
usemtl m115.002
f 12/12/29 31/31/29 32/32/29
usemtl m116.002
f 12/12/30 32/32/30 13/13/30
usemtl m117.002
f 13/13/31 32/32/31 14/14/31
usemtl m118.002
f 14/14/32 32/32/32 33/33/32
usemtl m119.002
f 14/14/33 33/33/33 34/34/33
usemtl m120.002
f 14/14/34 34/34/34 15/15/34
usemtl m121.002
f 15/15/35 34/34/35 35/35/35
usemtl m122.002
f 15/15/36 35/35/36 36/36/36
usemtl m123.002
f 15/15/37 36/36/37 16/16/37
usemtl m125.002
f 16/16/38 36/36/38 17/17/38
f 17/17/39 36/36/39 37/37/39
usemtl m126.002
f 17/17/15 37/37/15 18/18/15
usemtl m127.002
f 18/18/14 37/37/14 38/38/14
usemtl m128.002
f 18/18/40 38/38/40 39/39/40
usemtl m129.002
f 18/18/41 39/39/41 40/40/41
usemtl m130.002
f 18/18/42 40/40/42 6/6/42
usemtl m131.002
f 18/18/43 6/6/43 41/41/43
usemtl m132.002
f 18/18/44 41/41/44 5/5/44
usemtl m133.002
f 5/5/45 41/41/45 6/6/45
usemtl m139.002
f 4/4/46 42/42/47 19/19/48
usemtl m141.002
f 19/19/48 42/42/47 20/20/49
usemtl m142.002
f 42/42/50 4/4/50 6/6/50
f 20/20/51 42/42/51 6/6/51 21/21/51
usemtl m143.002
f 43/43/52 22/22/52 21/21/52 6/6/52
usemtl m144.002
f 22/22/53 43/43/53 44/44/53 23/23/53
usemtl m145.002
f 24/24/54 23/23/54 44/44/54 45/45/54
usemtl m146.002
f 25/25/54 24/24/54 45/45/54
usemtl m147.002
f 45/45/55 29/29/55 26/26/55 25/25/55
usemtl m148.002
f 29/29/56 45/45/56 46/46/56
usemtl m149.002
f 29/29/57 46/46/57 47/47/57
usemtl m150.002
f 29/29/58 47/47/58 48/48/58
usemtl m151.002
f 29/29/59 48/48/59 30/30/59
usemtl m152.002
f 30/30/60 48/48/60 49/49/60
usemtl m153.002
f 30/30/61 49/49/62 50/50/61
usemtl m154.002
f 30/30/63 50/50/64 51/51/64
f 51/51/64 50/50/64 52/52/64 53/53/64
usemtl m155.002
f 30/30/65 51/51/65 54/54/65
usemtl m156.002
f 30/30/65 54/54/65 55/55/65
usemtl m157.002
f 30/30/61 55/55/61 31/31/61
usemtl m158.002
f 31/31/61 55/55/61 56/56/66
usemtl m159.002
f 31/31/67 56/56/67 57/57/67
usemtl m160.002
f 31/31/68 57/57/68 58/58/68
usemtl m161.002
f 31/31/69 58/58/69 33/33/69
usemtl m162.002
f 31/31/70 33/33/70 32/32/70
usemtl m163.002
f 40/40/71 43/43/71 6/6/71
usemtl m164.002
f 43/43/72 40/40/72 59/59/72
usemtl m165.002
f 43/43/73 59/59/73 60/60/73
usemtl m166.002
f 43/43/74 60/60/74 61/61/74
usemtl m167.002
f 43/43/75 61/61/75 62/62/75
usemtl m168.002
f 43/43/76 62/62/76 44/44/76
usemtl m169.002
f 44/44/77 62/62/77 63/63/77
usemtl m170.002
f 44/44/61 63/63/61 45/45/61
usemtl m171.002
f 45/45/78 63/63/78 46/46/78
usemtl m172.002
f 46/46/79 63/63/79 64/64/79
usemtl m173.002
f 46/46/80 64/64/80 65/65/80
usemtl m174.002
f 46/46/81 65/65/81 47/47/81
usemtl m175.002
f 47/47/82 65/65/82 48/48/82
usemtl m176.002
f 48/48/83 65/65/83 64/64/83
usemtl m177.002
f 48/48/84 64/64/84 66/66/84
usemtl m178.002
f 48/48/85 66/66/85 49/49/85
usemtl m179.002
f 49/49/62 66/66/61 67/67/62
usemtl m180.002
f 49/49/62 67/67/62 68/68/61
usemtl m181.002
f 49/49/62 68/68/61 50/50/61
usemtl m182.002
f 50/50/64 68/68/64 52/52/64
usemtl m187.002
f 53/53/64 69/69/86 70/70/87
usemtl m188.002
f 53/53/64 70/70/87 71/71/88
usemtl m189.002
f 53/53/64 71/71/88 51/51/64
usemtl m190.002
f 51/51/65 71/71/65 54/54/65
usemtl m191.002
f 54/54/65 71/71/65 72/72/65
usemtl m192.002
f 54/54/89 72/72/89 73/73/89
usemtl m193.002
f 54/54/90 73/73/90 74/74/90
usemtl m194.002
f 54/54/91 74/74/92 55/55/93
usemtl m195.002
f 55/55/93 74/74/92 56/56/94
usemtl m196.002
f 56/56/95 74/74/95 57/57/95
usemtl m197.002
f 57/57/96 74/74/97 75/75/98
usemtl m198.002
f 57/57/96 75/75/98 76/76/99
usemtl m199.002
f 57/57/100 76/76/100 36/36/100
usemtl m200.002
f 57/57/101 36/36/101 35/35/101
usemtl m201.002
f 57/57/102 35/35/102 58/58/102
usemtl m202.002
f 58/58/103 35/35/103 34/34/103
usemtl m203.002
f 58/58/104 34/34/104 33/33/104
usemtl m204.002
f 77/77/105 78/78/105 79/79/105
usemtl m205.002
f 77/77/106 79/79/106 38/38/106
usemtl m206.002
f 77/77/107 38/38/107 37/37/107
usemtl m207.002
f 77/77/108 37/37/108 80/80/108
usemtl m208.002
f 77/77/109 80/80/109 78/78/109
usemtl m209.002
f 78/78/110 80/80/110 81/81/110
usemtl m210.002
f 78/78/111 81/81/111 82/82/111
usemtl m211.002
f 78/78/112 82/82/112 79/79/112
usemtl m212.002
f 79/79/113 82/82/113 40/40/113
usemtl m213.002
f 79/79/114 40/40/114 39/39/114
usemtl m214.002
f 79/79/115 39/39/115 38/38/115
usemtl m219.002
f 81/81/116 80/80/116 83/83/116
usemtl m220.002
f 81/81/117 83/83/117 82/82/117
usemtl m221.002
f 82/82/118 83/83/118 84/84/118
usemtl m222.002
f 82/82/61 84/84/119 85/85/61
usemtl m223.002
f 82/82/61 85/85/61 59/59/61
usemtl m224.002
f 82/82/120 59/59/120 40/40/120
usemtl m249.002
f 64/64/121 86/86/121 60/60/121
usemtl m250.002
f 64/64/122 60/60/122 87/87/122
usemtl m251.002
f 64/64/123 87/87/123 66/66/123
usemtl m252.002
f 66/66/61 87/87/15 67/67/62
usemtl m253.002
f 67/67/124 87/87/124 60/60/124
usemtl m254.002
f 67/67/125 60/60/125 59/59/125
usemtl m255.002
f 67/67/62 59/59/61 68/68/61
usemtl m256.002
f 68/68/64 59/59/126 88/88/64
usemtl m257.002
f 88/88/127 59/59/127 85/85/127
usemtl m258.002
f 88/88/127 85/85/127 89/89/127
usemtl m259.002
f 88/88/127 89/89/127 90/90/127
usemtl m260.002
f 88/88/64 90/90/88 53/53/64
f 53/53/64 52/52/64 68/68/64 88/88/64
usemtl m261.002
f 53/53/64 90/90/88 69/69/86
usemtl m262.002
f 69/69/128 90/90/129 91/91/130
usemtl m263.002
f 69/69/128 91/91/130 73/73/131
usemtl m264.002
f 69/69/132 73/73/132 70/70/132
usemtl m266.002
f 70/70/133 73/73/134 72/72/135
usemtl m267.002
f 70/70/133 72/72/135 71/71/136
usemtl m268.002
f 61/61/137 60/60/137 86/86/137
usemtl m269.002
f 61/61/138 86/86/138 62/62/138
usemtl m270.002
f 62/62/80 86/86/80 64/64/80
usemtl m271.002
f 62/62/139 64/64/79 63/63/79
usemtl m276.002
f 83/83/140 36/36/140 76/76/140
usemtl m277.002
f 83/83/141 76/76/142 75/75/143
usemtl m278.002
f 83/83/141 75/75/143 92/92/144
usemtl m279.002
f 83/83/145 92/92/145 84/84/145
usemtl m280.002
f 84/84/146 92/92/146 89/89/147
usemtl m281.002
f 84/84/146 89/89/147 85/85/148
usemtl m282.002
f 80/80/149 37/37/149 36/36/149
usemtl m283.002
f 80/80/150 36/36/150 83/83/150
usemtl m284.002
f 89/89/127 91/91/127 90/90/127
usemtl m285.002
f 91/91/151 89/89/151 92/92/151
usemtl m286.002
f 91/91/152 92/92/152 73/73/152
usemtl m287.002
f 73/73/153 92/92/153 75/75/153
usemtl m288.002
f 73/73/154 75/75/154 74/74/154
o print.004_runescapemodel.001
v 0.205374 0.029768 -0.017972
v 0.225378 0.010093 -0.014370
v 0.231085 0.017827 -0.037720
v 0.176810 0.029768 -0.017972
v 0.156805 0.010093 -0.014370
v 0.213950 0.050987 -0.064901
v 0.168234 0.050987 -0.064901
v 0.151099 0.017827 -0.037720
v 0.191092 0.000266 -0.196973
v 0.191092 0.000267 -0.196973
v 0.191092 0.000267 -0.196969
v 0.248236 0.000263 -0.065229
v 0.195776 0.000266 -0.186174
v 0.239386 0.000263 -0.042187
v 0.191092 0.000266 -0.196973
v 0.191092 0.000266 -0.196973
v 0.191092 0.000266 -0.196973
v 0.191092 0.000267 -0.196969
v 0.195776 0.000263 -0.065229
v 0.226599 0.000262 -0.017485
v 0.222052 0.000262 -0.012568
v 0.195776 0.000262 -0.012568
v 0.235617 0.000262 -0.032007
v 0.232077 0.000262 -0.025914
v 0.160849 0.000262 -0.012568
v 0.155585 0.000262 -0.017485
v 0.150107 0.000262 -0.025914
v 0.146567 0.000262 -0.032007
v 0.142798 0.000263 -0.042187
v 0.133948 0.000263 -0.065229
v 0.164893 0.000262 -0.012568
vt 0.375000 0.000000
vt 0.375000 0.000000
vt 0.375000 0.000000
vt 0.375000 0.000000
vt 0.375000 0.000000
vt 0.375000 0.000000
vt 0.375000 0.000000
vt 0.375000 0.000000
vt 0.375000 0.000000
vt 0.375000 0.000000
vt 0.375000 0.000000
vt 0.375000 0.000000
vt 0.375000 0.000000
vt 0.375000 0.000000
vt 0.375000 0.000000
vt 0.375000 0.000000
vt 0.375000 0.000000
vt 0.375000 0.000000
vt 0.375000 0.000000
vt 0.375000 0.000000
vt 0.375000 0.000000
vt 0.375000 0.000000
vt 0.375000 0.000000
vt 0.375000 0.000000
vt 0.375000 0.000000
vt 0.375000 0.000000
vt 0.375000 0.000000
vt 0.375000 0.000000
vt 0.375000 0.000000
vt 0.375000 0.000000
vt 0.375000 0.000000
vn 0.6132 0.6929 0.3794
vn 0.0000 0.1802 0.9836
vn 0.0000 0.1801 0.9837
vn 0.6251 0.6620 0.4136
vn 0.0000 0.9112 0.4120
vn -0.6251 0.6620 0.4136
vn -0.6132 0.6929 0.3793
vn 1.0000 0.0000 0.0000
vn 0.7660 0.5540 -0.3260
vn 0.7664 0.5515 -0.3294
vn 0.7646 0.5526 -0.3316
vn 0.7646 0.5526 -0.3317
vn 0.7788 0.5286 -0.3378
vn 0.8186 0.5523 0.1577
vn 0.8836 0.3340 0.3281
vn 0.8811 0.3304 0.3384
vn 0.8815 0.3311 0.3366
vn 0.0000 0.0000 1.0000
vn -1.0000 0.0000 0.0000
vn 0.0000 -1.0000 -0.0000
vn -0.0524 -0.9984 -0.0228
vn -0.7788 0.5286 -0.3378
vn 0.0000 0.9335 -0.3585
vn 0.8839 0.3344 0.3269
vn 0.8647 -0.0007 0.5024
vn 0.8365 -0.0684 0.5437
vn -0.8836 0.3341 0.3281
vn -0.8815 0.3311 0.3365
vn -0.8811 0.3304 0.3384
vn -0.8186 0.5523 0.1577
vn -0.8839 0.3344 0.3269
vn -0.8647 -0.0008 0.5024
vn -0.8365 -0.0685 0.5437
vn -0.6754 -0.1453 0.7230
vn 0.0000 0.1803 0.9836
vn 0.7286 -0.1230 0.6738
usemtl m18.003
s 1
f 93/93/155 94/94/155 95/95/155
f 94/94/156 93/93/157 96/96/157 97/97/156
usemtl m19.003
f 93/93/158 95/95/158 98/98/158
usemtl m20.003
f 93/93/159 98/98/159 96/96/159
usemtl m21.003
f 96/96/159 98/98/159 99/99/159
usemtl m22.003
f 96/96/160 99/99/160 100/100/160
usemtl m23.003
f 96/96/161 100/100/161 97/97/161
usemtl m90.002
f 101/101/162 102/102/162 103/103/162
usemtl m91.002
f 103/103/163 102/102/164 104/104/165 105/105/166
usemtl m92.002
f 104/104/167 102/102/167 98/98/167
usemtl m93.002
f 104/104/168 98/98/168 95/95/168
usemtl m94.002
f 106/106/169 104/104/170 95/95/171
usemtl m102.002
f 101/101/172 107/107/172 102/102/172
usemtl m103.002
f 108/108/172 102/102/172 107/107/172
usemtl m104.002
f 102/102/172 108/108/172 109/109/172
usemtl m105.002
f 109/109/173 110/110/173 102/102/173
usemtl m106.002
f 104/104/174 111/111/174 105/105/174
f 112/112/174 113/113/174 114/114/174 111/111/174 104/104/174 106/106/174 115/115/174 116/116/174
f 117/117/174 118/118/174 119/119/174 120/120/174 121/121/174 122/122/174 111/111/174 114/114/174 123/123/174
f 108/108/174 107/107/174 101/101/174 103/103/174 105/105/174 111/111/174 122/122/174 110/110/174 109/109/174
f 102/102/175 110/110/175 122/122/175
usemtl m107.002
f 102/102/176 122/122/176 99/99/176
usemtl m108.002
f 102/102/177 99/99/177 98/98/177
usemtl m109.002
f 95/95/171 94/94/178 115/115/178 106/106/169
usemtl m110.002
f 116/116/179 115/115/179 94/94/179
usemtl m111.002
f 112/112/180 116/116/180 94/94/180
usemtl m139.002
f 121/121/181 100/100/182 122/122/183
usemtl m140.002
f 122/122/184 100/100/184 99/99/184
usemtl m141.002
f 120/120/185 97/97/185 100/100/182 121/121/181
usemtl m142.002
f 119/119/186 97/97/186 120/120/186
usemtl m143.002
f 118/118/187 97/97/187 119/119/187
usemtl m144.002
f 97/97/188 118/118/188 117/117/188
usemtl m145.002
f 117/117/189 123/123/189 97/97/156
usemtl m146.002
f 113/113/189 94/94/156 97/97/156 123/123/189 114/114/189
usemtl m147.002
f 94/94/190 113/113/190 112/112/190
